<svg width="45" height="43" viewBox="0 0 45 43" fill="none" xmlns="http://www.w3.org/2000/svg">
<rect opacity="0.01" x="0.969238" y="0.613281" width="43.0612" height="41.608" fill="white"/>
<path d="M22.5235 40.8983C25.003 40.8983 27.0129 38.9562 27.0129 36.5604C27.0129 34.1648 25.003 32.2227 22.5235 32.2227C20.0441 32.2227 18.0342 34.1648 18.0342 36.5604C18.0342 38.9562 20.0441 40.8983 22.5235 40.8983Z" fill="#3E4958"/>
<path fill-rule="evenodd" clip-rule="evenodd" d="M22.5232 33.2901C20.6536 33.2901 19.138 34.7545 19.138 36.561C19.138 38.3675 20.6536 39.832 22.5232 39.832C24.3927 39.832 25.9083 38.3675 25.9083 36.561C25.9083 34.7545 24.3927 33.2901 22.5232 33.2901ZM16.9297 36.561C16.9297 33.576 19.434 31.1562 22.5232 31.1562C25.6124 31.1562 28.1167 33.576 28.1167 36.561C28.1167 39.546 25.6124 41.9657 22.5232 41.9657C19.434 41.9657 16.9297 39.546 16.9297 36.561Z" fill="white"/>
<path fill-rule="evenodd" clip-rule="evenodd" d="M21.4346 23.4473H23.4369V35.7946H21.4346V23.4473Z" fill="#3E4958"/>
<path d="M22.5238 23.9805C28.9702 23.9805 34.1961 18.9311 34.1961 12.7022C34.1961 6.47333 28.9702 1.42383 22.5238 1.42383C16.0774 1.42383 10.8516 6.47333 10.8516 12.7022C10.8516 18.9311 16.0774 23.9805 22.5238 23.9805Z" fill="#1152FD"/>
<path fill-rule="evenodd" clip-rule="evenodd" d="M22.5236 1.95744C16.3821 1.95744 11.4034 6.76811 11.4034 12.7024C11.4034 18.6366 16.3821 23.4473 22.5236 23.4473C28.6652 23.4473 33.6438 18.6366 33.6438 12.7024C33.6438 6.76811 28.6652 1.95744 22.5236 1.95744ZM10.2993 12.7024C10.2993 6.17895 15.7723 0.890625 22.5237 0.890625C29.275 0.890625 34.748 6.17895 34.748 12.7024C34.748 19.226 29.275 24.5142 22.5237 24.5142C15.7723 24.5142 10.2993 19.226 10.2993 12.7024Z" fill="#1152FD"/>
<path d="M22.5241 16.173C24.5075 16.173 26.1156 14.6192 26.1156 12.7027C26.1156 10.7861 24.5075 9.23242 22.5241 9.23242C20.5406 9.23242 18.9326 10.7861 18.9326 12.7027C18.9326 14.6192 20.5406 16.173 22.5241 16.173Z" fill="#F9FFFF"/>
</svg>
